<svg xmlns="http://www.w3.org/2000/svg" xmlns:xlink="http://www.w3.org/1999/xlink" width="500" zoomAndPan="magnify" viewBox="0 0 375 374.999991" height="500" preserveAspectRatio="xMidYMid meet" version="1.0"><defs><clipPath id="3b750aa415"><path d="M 131.84375 57.132812 L 234.144531 57.132812 L 234.144531 159.429688 L 131.84375 159.429688 Z M 131.84375 57.132812 " clip-rule="nonzero"/></clipPath><clipPath id="146ccf528b"><path d="M 90.9375 159.707031 L 275.292969 159.707031 L 275.292969 344.0625 L 90.9375 344.0625 Z M 90.9375 159.707031 " clip-rule="nonzero"/></clipPath><clipPath id="96f4fdea89"><path d="M 90.9375 159.707031 L 275.292969 159.707031 L 275.292969 344.0625 L 90.9375 344.0625 Z M 90.9375 159.707031 " clip-rule="nonzero"/></clipPath><clipPath id="e83cb38bb0"><path d="M 183.117188 159.707031 C 132.207031 159.707031 90.9375 200.976562 90.9375 251.882812 C 90.9375 302.792969 132.207031 344.0625 183.117188 344.0625 C 234.023438 344.0625 275.292969 302.792969 275.292969 251.882812 C 275.292969 200.976562 234.023438 159.707031 183.117188 159.707031 " clip-rule="nonzero"/></clipPath><clipPath id="324d518cd4"><path d="M 103.554688 144.402344 L 262.332031 144.402344 L 262.332031 303.183594 L 103.554688 303.183594 Z M 103.554688 144.402344 " clip-rule="nonzero"/></clipPath><clipPath id="2b668ea122"><path d="M 103.554688 144.402344 L 262.332031 144.402344 L 262.332031 303.183594 L 103.554688 303.183594 Z M 103.554688 144.402344 " clip-rule="nonzero"/></clipPath><clipPath id="875d6b70b9"><path d="M 182.941406 144.402344 C 139.097656 144.402344 103.554688 179.949219 103.554688 223.792969 C 103.554688 267.636719 139.097656 303.183594 182.941406 303.183594 C 226.789062 303.183594 262.332031 267.636719 262.332031 223.792969 C 262.332031 179.949219 226.789062 144.402344 182.941406 144.402344 " clip-rule="nonzero"/></clipPath><clipPath id="82693a65bb"><path d="M 114.984375 129.628906 L 251.386719 129.628906 L 251.386719 266.03125 L 114.984375 266.03125 Z M 114.984375 129.628906 " clip-rule="nonzero"/></clipPath><clipPath id="f37f32a137"><path d="M 114.984375 129.628906 L 251.386719 129.628906 L 251.386719 266.03125 L 114.984375 266.03125 Z M 114.984375 129.628906 " clip-rule="nonzero"/></clipPath><clipPath id="36e7efc652"><path d="M 183.183594 129.628906 C 145.519531 129.628906 114.984375 160.164062 114.984375 197.832031 C 114.984375 235.496094 145.519531 266.03125 183.183594 266.03125 C 220.851562 266.03125 251.386719 235.496094 251.386719 197.832031 C 251.386719 160.164062 220.851562 129.628906 183.183594 129.628906 " clip-rule="nonzero"/></clipPath><clipPath id="2bfd29f735"><path d="M 183 132 L 336 132 L 336 312 L 183 312 Z M 183 132 " clip-rule="nonzero"/></clipPath><clipPath id="5b3890fa80"><path d="M 278.265625 338.839844 L 150.425781 168.3125 L 246.773438 96.085938 L 374.613281 266.613281 Z M 278.265625 338.839844 " clip-rule="nonzero"/></clipPath><clipPath id="ca0ac6d1ce"><path d="M 278.265625 338.839844 L 150.425781 168.3125 L 246.773438 96.085938 L 374.613281 266.613281 Z M 278.265625 338.839844 " clip-rule="nonzero"/></clipPath><clipPath id="09e6081a36"><path d="M 43 131 L 183 131 L 183 321 L 43 321 Z M 43 131 " clip-rule="nonzero"/></clipPath><clipPath id="7fcb52ef0b"><path d="M 4.507812 285.449219 L 109.640625 100.058594 L 214.386719 159.457031 L 109.253906 344.847656 Z M 4.507812 285.449219 " clip-rule="nonzero"/></clipPath><clipPath id="7fe0c92949"><path d="M 109.675781 345.085938 L 214.804688 159.695312 L 110.058594 100.296875 L 4.929688 285.6875 Z M 109.675781 345.085938 " clip-rule="nonzero"/></clipPath><clipPath id="ed0e882f29"><path d="M 163.273438 328.753906 L 212.289062 328.753906 L 212.289062 357.523438 L 163.273438 357.523438 Z M 163.273438 328.753906 " clip-rule="nonzero"/></clipPath><clipPath id="a952d96c08"><path d="M 163.273438 328.753906 L 212.289062 328.753906 L 212.289062 357.523438 L 163.273438 357.523438 Z M 163.273438 328.753906 " clip-rule="nonzero"/></clipPath><clipPath id="226998eb1b"><path d="M 187.78125 357.523438 L 163.273438 328.753906 L 212.289062 328.753906 L 187.78125 357.523438 " clip-rule="nonzero"/></clipPath></defs><g clip-path="url(#3b750aa415)"><path fill="#000000" d="M 182.996094 57.132812 C 154.746094 57.132812 131.84375 80.03125 131.84375 108.28125 C 131.84375 136.53125 154.746094 159.429688 182.996094 159.429688 C 211.246094 159.429688 234.144531 136.53125 234.144531 108.28125 C 234.144531 80.03125 211.246094 57.132812 182.996094 57.132812 " fill-opacity="1" fill-rule="nonzero"/></g><g clip-path="url(#146ccf528b)"><path fill="#ffde59" d="M 183.117188 159.707031 C 132.207031 159.707031 90.9375 200.976562 90.9375 251.882812 C 90.9375 302.792969 132.207031 344.0625 183.117188 344.0625 C 234.023438 344.0625 275.292969 302.792969 275.292969 251.882812 C 275.292969 200.976562 234.023438 159.707031 183.117188 159.707031 " fill-opacity="1" fill-rule="nonzero"/></g><g clip-path="url(#96f4fdea89)"><g clip-path="url(#e83cb38bb0)"><path stroke-linecap="butt" transform="matrix(1.065432, 0, 0, 1.065432, 90.939402, 159.707524)" fill="none" stroke-linejoin="miter" d="M 86.516804 -0.000462406 C 38.73323 -0.000462406 -0.00178494 38.734553 -0.00178494 86.51446 C -0.00178494 134.298033 38.73323 173.033048 86.516804 173.033048 C 134.296711 173.033048 173.031726 134.298033 173.031726 86.51446 C 173.031726 38.734553 134.296711 -0.000462406 86.516804 -0.000462406 " stroke="#000000" stroke-width="21.114376" stroke-opacity="1" stroke-miterlimit="4"/></g></g><g clip-path="url(#324d518cd4)"><path fill="#ffde59" d="M 182.941406 144.402344 C 139.097656 144.402344 103.554688 179.949219 103.554688 223.792969 C 103.554688 267.636719 139.097656 303.183594 182.941406 303.183594 C 226.789062 303.183594 262.332031 267.636719 262.332031 223.792969 C 262.332031 179.949219 226.789062 144.402344 182.941406 144.402344 " fill-opacity="1" fill-rule="nonzero"/></g><g clip-path="url(#2b668ea122)"><g clip-path="url(#875d6b70b9)"><path stroke-linecap="butt" transform="matrix(1.063172, 0, 0, 1.063172, 103.553522, 144.403584)" fill="none" stroke-linejoin="miter" d="M 74.670783 -0.00116667 C 33.432158 -0.00116667 0.00109578 33.43357 0.00109578 74.672195 C 0.00109578 115.91082 33.432158 149.345557 74.670783 149.345557 C 115.913082 149.345557 149.344145 115.91082 149.344145 74.672195 C 149.344145 33.43357 115.913082 -0.00116667 74.670783 -0.00116667 " stroke="#000000" stroke-width="21.114376" stroke-opacity="1" stroke-miterlimit="4"/></g></g><g clip-path="url(#82693a65bb)"><path fill="#ffde59" d="M 183.183594 129.628906 C 145.519531 129.628906 114.984375 160.164062 114.984375 197.832031 C 114.984375 235.496094 145.519531 266.03125 183.183594 266.03125 C 220.851562 266.03125 251.386719 235.496094 251.386719 197.832031 C 251.386719 160.164062 220.851562 129.628906 183.183594 129.628906 " fill-opacity="1" fill-rule="nonzero"/></g><g clip-path="url(#f37f32a137)"><g clip-path="url(#36e7efc652)"><path stroke-linecap="butt" transform="matrix(1.066536, 0, 0, 1.066536, 114.985267, 129.630738)" fill="none" stroke-linejoin="miter" d="M 63.943768 -0.00171737 C 28.629381 -0.00171737 -0.00083593 28.6285 -0.00083593 63.946549 C -0.00083593 99.260935 28.629381 127.891152 63.943768 127.891152 C 99.261816 127.891152 127.892034 99.260935 127.892034 63.946549 C 127.892034 28.6285 99.261816 -0.00171737 63.943768 -0.00171737 " stroke="#000000" stroke-width="21.114376" stroke-opacity="1" stroke-miterlimit="4"/></g></g><g clip-path="url(#2bfd29f735)"><g clip-path="url(#5b3890fa80)"><g clip-path="url(#ca0ac6d1ce)"><path fill="#ffffff" d="M 333.714844 250.359375 C 335.296875 259.765625 335.96875 269.292969 335.671875 278.71875 C 335.378906 288.132812 331.945312 297.871094 324.5625 303.6875 C 313.292969 312.558594 293.066406 312.125 279.695312 308.898438 C 264.9375 305.335938 251.710938 296.449219 241.308594 285.542969 C 227.28125 270.839844 217.695312 252.558594 208.367188 234.507812 C 196.652344 211.839844 181.925781 185.527344 183.359375 159.316406 C 183.726562 152.527344 184.460938 145.179688 189.058594 140.191406 C 191.554688 137.488281 194.949219 135.777344 198.421875 134.558594 C 220.21875 126.886719 247.394531 140.914062 266.675781 151.414062 C 303.089844 171.230469 326.890625 209.753906 333.714844 250.359375 Z M 333.714844 250.359375 " fill-opacity="1" fill-rule="nonzero"/></g></g></g><g clip-path="url(#09e6081a36)"><g clip-path="url(#7fcb52ef0b)"><g clip-path="url(#7fe0c92949)"><path fill="#ffffff" d="M 43.429688 264.367188 C 43.054688 273.898438 43.601562 283.433594 45.09375 292.746094 C 46.582031 302.046875 51.222656 311.269531 59.285156 316.101562 C 71.589844 323.46875 91.597656 320.46875 104.449219 315.566406 C 118.636719 310.15625 130.625 299.664062 139.558594 287.523438 C 151.601562 271.15625 158.785156 251.804688 165.746094 232.71875 C 174.488281 208.742188 185.75 180.773438 181 154.957031 C 179.769531 148.269531 178.105469 141.074219 172.914062 136.710938 C 170.09375 134.34375 166.511719 133.082031 162.910156 132.3125 C 140.316406 127.476562 115.140625 144.839844 97.351562 157.703125 C 63.75 181.988281 45.039062 223.226562 43.429688 264.367188 Z M 43.429688 264.367188 " fill-opacity="1" fill-rule="nonzero"/></g></g></g><g clip-path="url(#ed0e882f29)"><path fill="#000000" d="M 187.78125 357.523438 L 163.273438 328.753906 L 212.289062 328.753906 L 187.78125 357.523438 " fill-opacity="1" fill-rule="nonzero"/></g><g clip-path="url(#a952d96c08)"><g clip-path="url(#226998eb1b)"><path stroke-linecap="butt" transform="matrix(-1.074751, -0.000000000000000132, 0.00000000000000013, -1.060714, 212.290757, 357.524362)" fill="none" stroke-linejoin="miter" d="M 22.804817 0.000871698 L 45.608057 27.123669 L 0.00157661 27.123669 L 22.804817 0.000871698 " stroke="#000000" stroke-width="21.114376" stroke-opacity="1" stroke-miterlimit="4"/></g></g><path stroke-linecap="butt" transform="matrix(2.243972, -3.600307, 3.617398, 2.254624, 189.668913, 94.47627)" fill="none" stroke-linejoin="miter" d="M 3.749489 -0.00017471 L 16.097871 0.000242166 " stroke="#000000" stroke-width="1" stroke-opacity="1" stroke-miterlimit="4"/><path stroke-linecap="butt" transform="matrix(2.243972, -3.600307, 3.617398, 2.254624, 189.668913, 94.47627)" fill-opacity="1" fill="#000000" fill-rule="nonzero" stroke-linejoin="miter" d="M 3.500116 0.0000995696 C 3.499896 0.0985028 3.490502 0.196118 3.470665 0.292651 C 3.452098 0.389477 3.423677 0.482697 3.385595 0.574351 C 3.347808 0.664742 3.302217 0.751335 3.247068 0.833059 C 3.192405 0.915561 3.130041 0.990962 3.06095 1.060818 C 2.990589 1.130381 2.915359 1.192166 2.833695 1.247144 C 2.751544 1.301344 2.66501 1.348545 2.574194 1.385443 C 2.483084 1.423603 2.388961 1.451755 2.292799 1.471453 C 2.196149 1.490373 2.098242 1.500354 2.000153 1.49965 C 1.90177 1.500208 1.804473 1.490374 1.707482 1.470631 C 1.610977 1.451667 1.517315 1.42338 1.425713 1.386256 C 1.334893 1.348647 1.248183 1.30201 1.166071 1.247121 C 1.085227 1.192525 1.009468 1.130455 0.939575 1.060427 C 0.870169 0.991177 0.807603 0.915524 0.752659 0.832984 C 0.698202 0.751221 0.652046 0.665389 0.614485 0.574225 C 0.576925 0.48306 0.54864 0.389382 0.529143 0.292411 C 0.510133 0.196218 0.500105 0.0987737 0.499838 -0.000407214 C 0.500059 -0.0988104 0.509453 -0.196425 0.528507 -0.292474 C 0.548344 -0.389007 0.576277 -0.483005 0.613578 -0.574174 C 0.652146 -0.66505 0.697737 -0.751643 0.752886 -0.833367 C 0.808036 -0.915091 0.869913 -0.99127 0.939492 -1.060348 C 1.008583 -1.130204 1.084595 -1.192474 1.166259 -1.247452 C 1.24841 -1.301652 1.335431 -1.348074 1.42576 -1.38575 C 1.51687 -1.423911 1.610993 -1.452063 1.707643 -1.470983 C 1.803805 -1.49068 1.900931 -1.500177 1.999801 -1.499958 C 2.098671 -1.499738 2.195968 -1.489904 2.292473 -1.470939 C 2.388977 -1.451974 2.482639 -1.423687 2.573947 -1.385301 C 2.664767 -1.347692 2.75099 -1.301832 2.833102 -1.246943 C 2.915214 -1.192055 2.990973 -1.129985 3.060379 -1.060735 C 3.130272 -0.990707 3.192838 -0.915054 3.247295 -0.833292 C 3.301752 -0.751529 3.348395 -0.664919 3.385956 -0.573755 C 3.423516 -0.48259 3.451801 -0.388911 3.470811 -0.292719 C 3.490308 -0.195748 3.500337 -0.0983037 3.500116 0.0000995696 Z M 3.500116 0.0000995696 " stroke="#000000" stroke-width="1" stroke-opacity="1" stroke-miterlimit="4"/><path stroke-linecap="butt" transform="matrix(2.243972, -3.600307, 3.617398, 2.254624, 234.206284, 23.018949)" fill-opacity="1" fill="#000000" fill-rule="nonzero" stroke-linejoin="miter" d="M -0.500038 0.000476746 C -0.500258 0.09888 -0.509652 0.196495 -0.528707 0.292543 C -0.548543 0.389077 -0.576477 0.483074 -0.613777 0.574243 C -0.652346 0.665119 -0.697936 0.751712 -0.753086 0.833436 C -0.807454 0.914676 -0.869331 0.990855 -0.939691 1.060417 C -1.008783 1.130273 -1.084795 1.192544 -1.166459 1.247521 C -1.24861 1.301721 -1.334849 1.347659 -1.425959 1.38582 C -1.51707 1.423981 -1.611193 1.452132 -1.707842 1.471052 C -1.804005 1.49075 -1.90113 1.500247 -2.000001 1.500027 C -2.098871 1.499808 -2.196168 1.489973 -2.292672 1.471008 C -2.389177 1.452044 -2.482839 1.423757 -2.574146 1.385371 C -2.664967 1.347762 -2.751189 1.301902 -2.833301 1.247013 C -2.915414 1.192124 -2.991173 1.130055 -3.060579 1.060805 C -3.130472 0.990777 -3.193037 0.915124 -3.247495 0.833361 C -3.301952 0.751599 -3.348595 0.664988 -3.386155 0.573824 C -3.423716 0.48266 -3.452001 0.388981 -3.471011 0.292788 C -3.490508 0.195818 -3.500536 0.0983732 -3.500316 -0.0000300369 C -3.500095 -0.0984333 -3.490701 -0.196048 -3.470865 -0.292581 C -3.452297 -0.389408 -3.423095 -0.483112 -3.385795 -0.574281 C -3.348008 -0.664672 -3.301636 -0.75175 -3.247267 -0.83299 C -3.192605 -0.915492 -3.130241 -0.990893 -3.061149 -1.060749 C -2.990789 -1.130311 -2.914777 -1.192582 -2.833113 -1.247559 C -2.750962 -1.301759 -2.66521 -1.348475 -2.573613 -1.385858 C -2.483284 -1.423534 -2.389161 -1.451685 -2.292998 -1.471383 C -2.196349 -1.490303 -2.098442 -1.500285 -1.999571 -1.500065 C -1.901969 -1.500139 -1.803891 -1.490789 -1.7069 -1.471046 C -1.610395 -1.452082 -1.516733 -1.423795 -1.425913 -1.386186 C -1.335092 -1.348578 -1.248383 -1.30194 -1.166271 -1.247051 C -1.084645 -1.19294 -1.008886 -1.13087 -0.938993 -1.060843 C -0.869587 -0.991593 -0.807803 -0.915455 -0.752859 -0.832915 C -0.698402 -0.751152 -0.652245 -0.66532 -0.614685 -0.574155 C -0.576343 -0.483475 -0.547571 -0.389019 -0.528561 -0.292826 C -0.509065 -0.195856 -0.500304 -0.0987042 -0.500038 0.000476746 Z M -0.500038 0.000476746 " stroke="#000000" stroke-width="1" stroke-opacity="1" stroke-miterlimit="4"/><path stroke-linecap="butt" transform="matrix(-2.158691, -3.652079, 3.669414, -2.168938, 188.434005, 95.465737)" fill="none" stroke-linejoin="miter" d="M 3.750073 0.000296558 L 16.097731 -0.000104334 " stroke="#000000" stroke-width="1" stroke-opacity="1" stroke-miterlimit="4"/><path stroke-linecap="butt" transform="matrix(-2.158691, -3.652079, 3.669414, -2.168938, 188.434005, 95.465737)" fill-opacity="1" fill="#000000" fill-rule="nonzero" stroke-linejoin="miter" d="M 3.499935 0.0000488211 C 3.500426 0.098276 3.490649 0.195785 3.471394 0.293041 C 3.451816 0.389042 3.423698 0.483213 3.385924 0.573832 C 3.347681 0.66524 3.301981 0.751197 3.247092 0.832812 C 3.192528 0.915683 3.13065 0.991058 3.060522 1.060514 C 2.991186 1.130437 2.915005 1.192074 2.833095 1.247148 C 2.751186 1.302222 2.664954 1.348366 2.574399 1.385579 C 2.483375 1.423582 2.389291 1.452331 2.292613 1.471039 C 2.195466 1.490535 2.099042 1.499811 2.000348 1.5003 C 1.901331 1.499534 1.804152 1.490269 1.707227 1.471572 C 1.61077 1.452086 1.51662 1.423312 1.425571 1.385717 C 1.334521 1.348121 1.248626 1.301847 1.166623 1.247218 C 1.08462 1.192589 1.009356 1.130215 0.93957 1.060417 C 0.869784 0.99062 0.807385 0.915588 0.752518 0.833277 C 0.698444 0.751432 0.651289 0.66514 0.614367 0.574225 C 0.576653 0.482842 0.547767 0.389202 0.528971 0.292981 C 0.509382 0.196293 0.500206 0.0982799 0.499715 0.0000527429 C 0.500484 -0.098497 0.509469 -0.196472 0.529048 -0.292473 C 0.547833 -0.38894 0.576744 -0.482645 0.614194 -0.57452 C 0.651968 -0.665139 0.698137 -0.751884 0.753025 -0.8335 C 0.807914 -0.915115 0.869792 -0.99049 0.939128 -1.060413 C 1.009256 -1.129869 1.085113 -1.192762 1.166554 -1.247047 C 1.248463 -1.302121 1.334696 -1.348264 1.425719 -1.386267 C 1.517067 -1.423014 1.611151 -1.451763 1.707037 -1.470937 C 1.804183 -1.490433 1.901869 -1.500032 2.000094 -1.499732 C 2.098787 -1.500221 2.195966 -1.490956 2.292423 -1.47147 C 2.38888 -1.451985 2.483029 -1.423211 2.574078 -1.385615 C 2.665128 -1.348019 2.751024 -1.301746 2.833027 -1.247117 C 2.91503 -1.192488 2.991555 -1.130436 3.060548 -1.061105 C 3.130334 -0.991307 3.192264 -0.915486 3.247131 -0.833175 C 3.302467 -0.751653 3.348361 -0.665039 3.386075 -0.573657 C 3.423465 -0.48353 3.451882 -0.3891 3.471471 -0.292413 C 3.490268 -0.196191 3.499912 -0.0989672 3.499935 0.0000488211 Z M 3.499935 0.0000488211 " stroke="#000000" stroke-width="1" stroke-opacity="1" stroke-miterlimit="4"/><path stroke-linecap="butt" transform="matrix(-2.158691, -3.652079, 3.669414, -2.168938, 145.589249, 22.980883)" fill-opacity="1" fill="#000000" fill-rule="nonzero" stroke-linejoin="miter" d="M -0.500264 -0.000325826 C -0.500241 0.0986902 -0.510019 0.196199 -0.528804 0.292666 C -0.54759 0.389134 -0.576501 0.482838 -0.614275 0.573458 C -0.651725 0.665332 -0.698687 0.751611 -0.752782 0.833693 C -0.807671 0.915309 -0.869549 0.990683 -0.938885 1.060606 C -1.009013 1.130062 -1.084402 1.192166 -1.166311 1.24724 C -1.249013 1.301848 -1.335245 1.347991 -1.426268 1.385994 C -1.516823 1.423207 -1.610908 1.451956 -1.707586 1.470664 C -1.80394 1.490627 -1.901626 1.500225 -1.999851 1.499925 C -2.098544 1.500415 -2.196047 1.489894 -2.292972 1.471197 C -2.389429 1.451712 -2.482786 1.423404 -2.573835 1.385808 C -2.664885 1.348213 -2.751573 1.301473 -2.833576 1.246844 C -2.915579 1.192215 -2.991312 1.130629 -3.061098 1.060832 C -3.130091 0.991501 -3.192814 0.915213 -3.246888 0.833368 C -3.301755 0.751057 -3.348118 0.665232 -3.385832 0.57385 C -3.424014 0.483256 -3.451639 0.389293 -3.471228 0.292606 C -3.490817 0.195918 -3.500461 0.0986942 -3.499691 0.00014441 C -3.500183 -0.0980827 -3.490405 -0.195591 -3.471151 -0.292848 C -3.452365 -0.389315 -3.423455 -0.48302 -3.385681 -0.573639 C -3.348231 -0.665514 -3.301738 -0.751003 -3.247642 -0.833085 C -3.192285 -0.91549 -3.130407 -0.990865 -3.061071 -1.060787 C -2.990942 -1.130244 -2.915554 -1.192347 -2.833645 -1.247421 C -2.750943 -1.302029 -2.664711 -1.348173 -2.574156 -1.385386 C -2.483132 -1.423388 -2.389047 -1.452138 -2.292369 -1.470845 C -2.196016 -1.490808 -2.09833 -1.500407 -2.000105 -1.500107 C -1.90188 -1.499807 -1.803909 -1.490076 -1.706983 -1.471379 C -1.610527 -1.451893 -1.51717 -1.423585 -1.42612 -1.38599 C -1.335071 -1.348394 -1.248383 -1.301654 -1.166379 -1.247025 C -1.084376 -1.192396 -1.009112 -1.130021 -0.939326 -1.060224 C -0.86954 -0.990427 -0.807142 -0.915395 -0.753068 -0.83355 C -0.698201 -0.751238 -0.651838 -0.665414 -0.614124 -0.574031 C -0.57641 -0.482649 -0.548317 -0.389475 -0.528728 -0.292787 C -0.509138 -0.1961 -0.499963 -0.0980867 -0.500264 -0.000325826 Z M -0.500264 -0.000325826 " stroke="#000000" stroke-width="1" stroke-opacity="1" stroke-miterlimit="4"/></svg>