<svg xmlns="http://www.w3.org/2000/svg" xmlns:xlink="http://www.w3.org/1999/xlink" width="500" zoomAndPan="magnify" viewBox="0 0 375 374.999991" height="500" preserveAspectRatio="xMidYMid meet" version="1.0"><defs><clipPath id="72ab939780"><path d="M 113 149 L 265 149 L 265 281 L 113 281 Z M 113 149 " clip-rule="nonzero"/></clipPath><clipPath id="95d61da698"><path d="M 171.039062 313.527344 L 94.5625 182.746094 L 207.214844 116.871094 L 283.691406 247.652344 Z M 171.039062 313.527344 " clip-rule="nonzero"/></clipPath><clipPath id="28224e0d34"><path d="M 113 149 L 265 149 L 265 281 L 113 281 Z M 113 149 " clip-rule="nonzero"/></clipPath><clipPath id="dbeb5607c8"><path d="M 171.039062 313.527344 L 94.5625 182.746094 L 207.214844 116.871094 L 283.691406 247.652344 Z M 171.039062 313.527344 " clip-rule="nonzero"/></clipPath><clipPath id="8d55f9f041"><path d="M 171.039062 313.527344 L 94.566406 182.746094 L 207.214844 116.871094 L 283.691406 247.652344 Z M 171.039062 313.527344 " clip-rule="nonzero"/></clipPath><clipPath id="c20114192c"><path d="M 150.890625 149.808594 L 226.332031 149.566406 L 264.570312 214.957031 L 227.363281 280.589844 L 151.921875 280.832031 L 113.683594 215.441406 L 150.890625 149.808594 " clip-rule="nonzero"/></clipPath><clipPath id="f1905e6dcb"><path d="M 124 45 L 255 45 L 255 159 L 124 159 Z M 124 45 " clip-rule="nonzero"/></clipPath><clipPath id="ed211f0f9d"><path d="M 172.597656 186.070312 L 107.859375 75.359375 L 205.621094 18.195312 L 270.359375 128.90625 Z M 172.597656 186.070312 " clip-rule="nonzero"/></clipPath><clipPath id="5004faabe0"><path d="M 124 45 L 255 45 L 255 159 L 124 159 Z M 124 45 " clip-rule="nonzero"/></clipPath><clipPath id="e3273b97ec"><path d="M 172.597656 186.070312 L 107.859375 75.359375 L 205.621094 18.195312 L 270.359375 128.90625 Z M 172.597656 186.070312 " clip-rule="nonzero"/></clipPath><clipPath id="90f3c9197b"><path d="M 172.597656 186.070312 L 107.859375 75.363281 L 206.710938 17.558594 L 271.449219 128.265625 Z M 172.597656 186.070312 " clip-rule="nonzero"/></clipPath><clipPath id="9aaefb3059"><path d="M 156.738281 46.777344 L 221.804688 45.871094 L 254.175781 101.226562 L 221.476562 157.488281 L 156.410156 158.394531 L 124.042969 103.039062 L 156.738281 46.777344 " clip-rule="nonzero"/></clipPath><clipPath id="2b519d7d1b"><path d="M 217 86 L 375 86 L 375 223 L 217 223 Z M 217 86 " clip-rule="nonzero"/></clipPath><clipPath id="f9dbb21977"><path d="M 277.601562 256.601562 L 198.097656 120.640625 L 315.28125 52.117188 L 394.785156 188.078125 Z M 277.601562 256.601562 " clip-rule="nonzero"/></clipPath><clipPath id="e7f80c502c"><path d="M 217 86 L 375 86 L 375 223 L 217 223 Z M 217 86 " clip-rule="nonzero"/></clipPath><clipPath id="8b891d964d"><path d="M 277.601562 256.601562 L 198.097656 120.640625 L 315.28125 52.117188 L 394.785156 188.078125 Z M 277.601562 256.601562 " clip-rule="nonzero"/></clipPath><clipPath id="c55a5bc3e8"><path d="M 277.601562 256.601562 L 198.097656 120.640625 L 315.28125 52.117188 L 394.785156 188.078125 Z M 277.601562 256.601562 " clip-rule="nonzero"/></clipPath><clipPath id="ff93435a66"><path d="M 256.6875 86.378906 L 335.15625 86.105469 L 374.910156 154.085938 L 336.191406 222.339844 L 257.726562 222.613281 L 217.972656 154.632812 L 256.6875 86.378906 " clip-rule="nonzero"/></clipPath><clipPath id="43c36d61e7"><path d="M 0 86 L 158 86 L 158 223 L 0 223 Z M 0 86 " clip-rule="nonzero"/></clipPath><clipPath id="343d47b5bb"><path d="M 59.996094 256.601562 L -19.507812 120.640625 L 97.679688 52.117188 L 177.183594 188.078125 Z M 59.996094 256.601562 " clip-rule="nonzero"/></clipPath><clipPath id="4c72b79e4a"><path d="M 0 86 L 158 86 L 158 223 L 0 223 Z M 0 86 " clip-rule="nonzero"/></clipPath><clipPath id="abf8a3b94c"><path d="M 59.996094 256.601562 L -19.507812 120.640625 L 97.679688 52.117188 L 177.183594 188.078125 Z M 59.996094 256.601562 " clip-rule="nonzero"/></clipPath><clipPath id="4e17ba9971"><path d="M 59.996094 256.601562 L -19.507812 120.640625 L 97.675781 52.117188 L 177.183594 188.078125 Z M 59.996094 256.601562 " clip-rule="nonzero"/></clipPath><clipPath id="60da1d355b"><path d="M 39.085938 86.378906 L 117.554688 86.105469 L 157.304688 154.085938 L 118.589844 222.339844 L 40.121094 222.613281 L 0.371094 154.632812 L 39.085938 86.378906 " clip-rule="nonzero"/></clipPath><clipPath id="b7603271a3"><path d="M 173.726562 313.746094 L 206.726562 313.746094 L 206.726562 353.496094 L 173.726562 353.496094 Z M 173.726562 313.746094 " clip-rule="nonzero"/></clipPath><clipPath id="25171fddb4"><path d="M 173.726562 313.746094 L 206.726562 313.746094 L 206.726562 353.496094 L 173.726562 353.496094 Z M 173.726562 313.746094 " clip-rule="nonzero"/></clipPath><clipPath id="b3d58a2fb3"><path d="M 190.226562 353.496094 L 173.726562 313.746094 L 206.726562 313.746094 L 190.226562 353.496094 " clip-rule="nonzero"/></clipPath><clipPath id="915eead0a8"><path d="M 136 210 L 242 210 L 242 301 L 136 301 Z M 136 210 " clip-rule="nonzero"/></clipPath><clipPath id="1846ee36b7"><path d="M 176.683594 323.609375 L 123.683594 232.96875 L 201.375 187.539062 L 254.378906 278.179688 Z M 176.683594 323.609375 " clip-rule="nonzero"/></clipPath><clipPath id="d27bda21ae"><path d="M 136 210 L 242 210 L 242 301 L 136 301 Z M 136 210 " clip-rule="nonzero"/></clipPath><clipPath id="5767568560"><path d="M 176.683594 323.609375 L 123.683594 232.96875 L 201.375 187.539062 L 254.378906 278.179688 Z M 176.683594 323.609375 " clip-rule="nonzero"/></clipPath><clipPath id="629eae24ec"><path d="M 176.6875 323.609375 L 123.683594 232.96875 L 201.375 187.539062 L 254.375 278.179688 Z M 176.6875 323.609375 " clip-rule="nonzero"/></clipPath><clipPath id="63b72f6e3e"><path d="M 162.527344 210.253906 L 214.625 210.199219 L 241.125 255.519531 L 215.53125 300.894531 L 163.433594 300.949219 L 136.933594 255.628906 L 162.527344 210.253906 " clip-rule="nonzero"/></clipPath><clipPath id="ba1d1fd8c8"><path d="M 148 240 L 231 240 L 231 312 L 148 312 Z M 148 240 " clip-rule="nonzero"/></clipPath><clipPath id="bb2ce15ee4"><path d="M 179.804688 329.445312 L 138.160156 258.230469 L 199.019531 222.640625 L 240.664062 293.859375 Z M 179.804688 329.445312 " clip-rule="nonzero"/></clipPath><clipPath id="3652457003"><path d="M 148 240 L 231 240 L 231 312 L 148 312 Z M 148 240 " clip-rule="nonzero"/></clipPath><clipPath id="e52c205608"><path d="M 179.804688 329.445312 L 138.160156 258.230469 L 199.019531 222.640625 L 240.664062 293.859375 Z M 179.804688 329.445312 " clip-rule="nonzero"/></clipPath><clipPath id="56abf743cc"><path d="M 179.804688 329.445312 L 138.160156 258.230469 L 199.019531 222.644531 L 240.664062 293.859375 Z M 179.804688 329.445312 " clip-rule="nonzero"/></clipPath><clipPath id="3ae5b2fcf9"><path d="M 168.589844 240.4375 L 209.429688 240.445312 L 230.253906 276.054688 L 210.234375 311.652344 L 169.394531 311.640625 L 148.574219 276.035156 L 168.589844 240.4375 " clip-rule="nonzero"/></clipPath><clipPath id="bbf2a9ea23"><path d="M 159 266 L 222 266 L 222 321 L 159 321 Z M 159 266 " clip-rule="nonzero"/></clipPath><clipPath id="ed8a8fa8f0"><path d="M 182.730469 334.320312 L 151.308594 280.585938 L 197.921875 253.328125 L 229.347656 307.0625 Z M 182.730469 334.320312 " clip-rule="nonzero"/></clipPath><clipPath id="7ab2c47975"><path d="M 159 266 L 222 266 L 222 321 L 159 321 Z M 159 266 " clip-rule="nonzero"/></clipPath><clipPath id="6707f68f32"><path d="M 182.730469 334.320312 L 151.308594 280.585938 L 197.921875 253.328125 L 229.347656 307.0625 Z M 182.730469 334.320312 " clip-rule="nonzero"/></clipPath><clipPath id="9e8aa0c2d0"><path d="M 182.730469 334.320312 L 151.308594 280.585938 L 197.925781 253.328125 L 229.34375 307.0625 Z M 182.730469 334.320312 " clip-rule="nonzero"/></clipPath><clipPath id="8d9921e0cf"><path d="M 174.617188 266.957031 L 205.777344 266.761719 L 221.488281 293.628906 L 206.035156 320.691406 L 174.875 320.886719 L 159.164062 294.019531 L 174.617188 266.957031 " clip-rule="nonzero"/></clipPath></defs><g clip-path="url(#72ab939780)"><g clip-path="url(#95d61da698)"><path fill="#ffde59" d="M 150.890625 149.808594 L 226.332031 149.566406 L 264.570312 214.957031 L 227.363281 280.589844 L 151.921875 280.832031 L 113.683594 215.441406 L 150.890625 149.808594 " fill-opacity="1" fill-rule="nonzero"/></g></g><g clip-path="url(#28224e0d34)"><g clip-path="url(#dbeb5607c8)"><g clip-path="url(#8d55f9f041)"><g clip-path="url(#c20114192c)"><path stroke-linecap="butt" transform="matrix(-0.378504, -0.647282, 0.648772, -0.379376, 171.040671, 313.526377)" fill="none" stroke-linejoin="miter" d="M 202.046465 86.818485 L 151.537479 173.634129 L 50.513708 173.634686 L 0.00155396 86.815112 L 50.51054 -0.000531916 L 151.534311 -0.00108909 L 202.046465 86.818485 " stroke="#6d412a" stroke-width="30" stroke-opacity="1" stroke-miterlimit="4"/></g></g></g></g><g clip-path="url(#f1905e6dcb)"><g clip-path="url(#ed211f0f9d)"><path fill="#ffde59" d="M 156.738281 46.777344 L 221.804688 45.871094 L 254.175781 101.226562 L 221.476562 157.488281 L 156.410156 158.394531 L 124.042969 103.039062 L 156.738281 46.777344 " fill-opacity="1" fill-rule="nonzero"/></g></g><g clip-path="url(#5004faabe0)"><g clip-path="url(#e3273b97ec)"><g clip-path="url(#90f3c9197b)"><g clip-path="url(#9aaefb3059)"><path stroke-linecap="butt" transform="matrix(-0.378177, -0.646723, 0.648371, -0.379141, 172.596555, 186.071693)" fill="none" stroke-linejoin="miter" d="M 171.187371 75.390323 L 128.390474 150.781691 L 42.795678 150.783359 L 0.000413203 75.38917 L 42.797311 -0.00219804 L 128.389474 0.000623292 L 171.187371 75.390323 " stroke="#6d412a" stroke-width="30" stroke-opacity="1" stroke-miterlimit="4"/></g></g></g></g><g clip-path="url(#2b519d7d1b)"><g clip-path="url(#f9dbb21977)"><path fill="#ffffff" d="M 256.6875 86.378906 L 335.15625 86.105469 L 374.910156 154.085938 L 336.191406 222.339844 L 257.726562 222.613281 L 217.972656 154.632812 L 256.6875 86.378906 " fill-opacity="1" fill-rule="nonzero"/></g></g><g clip-path="url(#e7f80c502c)"><g clip-path="url(#8b891d964d)"><g clip-path="url(#c55a5bc3e8)"><g clip-path="url(#ff93435a66)"><path stroke-linecap="butt" transform="matrix(-0.377973, -0.646374, 0.648271, -0.379083, 277.601177, 256.601878)" fill="none" stroke-linejoin="miter" d="M 210.344718 90.380383 L 157.759917 180.763991 L 52.586723 180.765916 L 0.000963944 90.379742 L 52.583132 0.000624289 L 157.756326 -0.00130038 L 210.344718 90.380383 " stroke="#6d412a" stroke-width="30" stroke-opacity="1" stroke-miterlimit="4"/></g></g></g></g><g clip-path="url(#43c36d61e7)"><g clip-path="url(#343d47b5bb)"><path fill="#ffffff" d="M 39.085938 86.378906 L 117.554688 86.105469 L 157.304688 154.085938 L 118.589844 222.339844 L 40.121094 222.613281 L 0.371094 154.632812 L 39.085938 86.378906 " fill-opacity="1" fill-rule="nonzero"/></g></g><g clip-path="url(#4c72b79e4a)"><g clip-path="url(#abf8a3b94c)"><g clip-path="url(#4e17ba9971)"><g clip-path="url(#60da1d355b)"><path stroke-linecap="butt" transform="matrix(-0.377973, -0.646374, 0.648271, -0.379083, 59.997749, 256.601878)" fill="none" stroke-linejoin="miter" d="M 210.34346 90.382528 L 157.758659 180.766136 L 52.588098 180.76357 L -0.000293766 90.381887 L 52.584508 -0.00172143 L 157.755068 0.000844137 L 210.34346 90.382528 " stroke="#6d412a" stroke-width="30" stroke-opacity="1" stroke-miterlimit="4"/></g></g></g></g><g clip-path="url(#b7603271a3)"><path fill="#ffde59" d="M 190.226562 353.496094 L 173.726562 313.746094 L 206.726562 313.746094 L 190.226562 353.496094 " fill-opacity="1" fill-rule="nonzero"/></g><g clip-path="url(#25171fddb4)"><g clip-path="url(#b3d58a2fb3)"><path stroke-linecap="butt" transform="matrix(-0.74629, -0.000000000000000091, 0.000000000000000091, -0.746041, 206.725493, 353.494899)" fill="none" stroke-linejoin="miter" d="M 22.107943 -0.0016012 L 44.217319 53.279654 L -0.00143265 53.279654 L 22.107943 -0.0016012 " stroke="#6d412a" stroke-width="30" stroke-opacity="1" stroke-miterlimit="4"/></g></g><g clip-path="url(#915eead0a8)"><g clip-path="url(#1846ee36b7)"><path fill="#ffde59" d="M 162.527344 210.253906 L 214.625 210.199219 L 241.125 255.519531 L 215.53125 300.894531 L 163.433594 300.949219 L 136.933594 255.628906 L 162.527344 210.253906 " fill-opacity="1" fill-rule="nonzero"/></g></g><g clip-path="url(#d27bda21ae)"><g clip-path="url(#5767568560)"><g clip-path="url(#629eae24ec)"><g clip-path="url(#63b72f6e3e)"><path stroke-linecap="butt" transform="matrix(-0.378254, -0.646854, 0.645164, -0.377266, 176.686032, 323.610536)" fill="none" stroke-linejoin="miter" d="M 140.126915 60.209386 L 105.09415 120.421022 L 35.032522 120.419305 L 0.00102829 60.210463 L 35.033793 -0.00117379 L 105.095421 0.000543685 L 140.126915 60.209386 " stroke="#6d412a" stroke-width="30" stroke-opacity="1" stroke-miterlimit="4"/></g></g></g></g><g clip-path="url(#ba1d1fd8c8)"><g clip-path="url(#bb2ce15ee4)"><path fill="#ffde59" d="M 168.589844 240.4375 L 209.429688 240.445312 L 230.253906 276.054688 L 210.234375 311.652344 L 169.394531 311.640625 L 148.574219 276.035156 L 168.589844 240.4375 " fill-opacity="1" fill-rule="nonzero"/></g></g><g clip-path="url(#3652457003)"><g clip-path="url(#e52c205608)"><g clip-path="url(#56abf743cc)"><g clip-path="url(#3ae5b2fcf9)"><path stroke-linecap="butt" transform="matrix(-0.379833, -0.649554, 0.645929, -0.377713, 179.805417, 329.445154)" fill="none" stroke-linejoin="miter" d="M 109.636237 47.107176 L 82.229719 94.21755 L 27.407582 94.219045 L -0.000934388 47.108295 L 27.410066 0.000556157 L 82.2251 0.00093202 L 109.636237 47.107176 " stroke="#6d412a" stroke-width="30" stroke-opacity="1" stroke-miterlimit="4"/></g></g></g></g><g clip-path="url(#bbf2a9ea23)"><g clip-path="url(#ed8a8fa8f0)"><path fill="#ffde59" d="M 174.617188 266.957031 L 205.777344 266.761719 L 221.488281 293.628906 L 206.035156 320.691406 L 174.875 320.886719 L 159.164062 294.019531 L 174.617188 266.957031 " fill-opacity="1" fill-rule="nonzero"/></g></g><g clip-path="url(#7ab2c47975)"><g clip-path="url(#6707f68f32)"><g clip-path="url(#9e8aa0c2d0)"><g clip-path="url(#8d9921e0cf)"><path stroke-linecap="butt" transform="matrix(-0.376748, -0.644278, 0.650396, -0.380325, 182.729525, 334.31992)" fill="none" stroke-linejoin="miter" d="M 83.40027 35.837477 L 62.551102 71.669919 L 20.849832 71.670023 L 0.000373707 35.833209 L 20.849543 0.000767275 L 62.550812 0.00066343 L 83.40027 35.837477 " stroke="#6d412a" stroke-width="30" stroke-opacity="1" stroke-miterlimit="4"/></g></g></g></g><path stroke-linecap="butt" transform="matrix(1.654843, -2.497553, 2.837845, 1.880316, 206.492715, 66.731854)" fill="none" stroke-linejoin="miter" d="M 3.749833 0.000393725 L 14.026466 -0.000421172 " stroke="#6d412a" stroke-width="1" stroke-opacity="1" stroke-miterlimit="4"/><path stroke-linecap="butt" transform="matrix(1.654843, -2.497553, 2.837845, 1.880316, 206.492715, 66.731854)" fill-opacity="1" fill="#6d412a" fill-rule="nonzero" stroke-linejoin="miter" d="M 3.499598 0.000406871 C 3.499645 0.0981096 3.490291 0.195789 3.470814 0.292488 C 3.451338 0.389188 3.423193 0.482683 3.386013 0.574565 C 3.348113 0.66549 3.301912 0.75162 3.247408 0.832956 C 3.192538 0.915883 3.1301 0.990834 3.060447 1.060357 C 2.990794 1.129881 2.91538 1.191751 2.833838 1.24756 C 2.751576 1.302412 2.665727 1.348345 2.573396 1.385668 C 2.482872 1.423314 2.38876 1.452041 2.292149 1.471213 C 2.195537 1.490386 2.098231 1.500327 1.999512 1.500082 C 1.900793 1.499836 1.804274 1.490048 1.707062 1.471029 C 1.610937 1.451376 1.516645 1.423772 1.42564 1.385992 C 1.334636 1.348211 1.248359 1.302169 1.166089 1.246906 C 1.08454 1.192601 1.009525 1.130355 0.939958 1.060804 C 0.87039 0.991252 0.806991 0.91535 0.752653 0.832788 C 0.697949 0.751817 0.651219 0.664818 0.613904 0.573706 C 0.57659 0.482593 0.548324 0.388958 0.529106 0.292798 C 0.509168 0.195683 0.500439 0.0989129 0.499671 0.000253582 C 0.499991 -0.0990395 0.510065 -0.195762 0.529542 -0.292462 C 0.547931 -0.388527 0.576443 -0.483613 0.614343 -0.574538 C 0.652243 -0.665463 0.698444 -0.751594 0.752948 -0.83293 C 0.807818 -0.915856 0.870256 -0.990808 0.939909 -1.060331 C 1.008842 -1.13081 1.084256 -1.192681 1.166518 -1.247534 C 1.24878 -1.302386 1.33463 -1.348318 1.425153 -1.385964 C 1.517484 -1.423288 1.610509 -1.45138 1.707121 -1.470553 C 1.803733 -1.489725 1.901038 -1.499667 1.999757 -1.499421 C 2.097756 -1.500132 2.196082 -1.490021 2.293294 -1.471002 C 2.388699 -1.452306 2.482624 -1.423111 2.573629 -1.385331 C 2.66572 -1.348185 2.751997 -1.302142 2.833547 -1.247836 C 2.915816 -1.192574 2.990831 -1.130329 3.060399 -1.060777 C 3.129966 -0.991225 3.192278 -0.91469 3.246983 -0.833718 C 3.302408 -0.75179 3.34733 -0.665114 3.385732 -0.574636 C 3.423766 -0.482567 3.452032 -0.388931 3.47125 -0.292772 C 3.490468 -0.196612 3.499917 -0.0988862 3.499598 0.000406871 Z M 3.499598 0.000406871 " stroke="#6d412a" stroke-width="1" stroke-opacity="1" stroke-miterlimit="4"/><path stroke-linecap="butt" transform="matrix(1.654843, -2.497553, 2.837845, 1.880316, 235.909441, 22.335024)" fill-opacity="1" fill="#6d412a" fill-rule="nonzero" stroke-linejoin="miter" d="M -0.499505 -0.000284174 C -0.499825 0.0990089 -0.509899 0.195732 -0.529376 0.292431 C -0.548852 0.389131 -0.576277 0.483582 -0.614177 0.574507 C -0.652077 0.665432 -0.698278 0.751563 -0.752782 0.832899 C -0.807652 0.915826 -0.87009 0.990777 -0.939743 1.0603 C -1.008676 1.13078 -1.08409 1.192651 -1.166352 1.247503 C -1.248614 1.302355 -1.334464 1.348288 -1.426795 1.385611 C -1.517318 1.423257 -1.61143 1.451984 -1.708042 1.471156 C -1.804653 1.490329 -1.901959 1.50027 -2.000678 1.500024 C -2.098677 1.500735 -2.195916 1.48999 -2.293128 1.470972 C -2.389253 1.451319 -2.483545 1.423715 -2.57455 1.385934 C -2.665554 1.348154 -2.751831 1.302111 -2.833381 1.247806 C -2.91565 1.192544 -2.990665 1.130298 -3.060233 1.060746 C -3.1298 0.991195 -3.193199 0.915293 -3.246817 0.833688 C -3.302242 0.75176 -3.348251 0.665717 -3.386286 0.573649 C -3.4236 0.482536 -3.451866 0.3889 -3.471084 0.292741 C -3.490302 0.196582 -3.499751 0.0988556 -3.500519 0.00019633 C -3.499479 -0.0981402 -3.490125 -0.19582 -3.470648 -0.292519 C -3.451172 -0.389218 -3.423027 -0.482714 -3.385847 -0.574595 C -3.347947 -0.66552 -3.301746 -0.751651 -3.247243 -0.832987 C -3.192373 -0.915913 -3.129934 -0.990865 -3.060281 -1.060388 C -2.990628 -1.129911 -2.915934 -1.192739 -2.833672 -1.247591 C -2.75141 -1.302443 -2.665561 -1.348375 -2.57323 -1.385699 C -2.482706 -1.423345 -2.388594 -1.452071 -2.291983 -1.471244 C -2.195371 -1.490416 -2.098065 -1.500358 -1.999346 -1.500112 C -1.900627 -1.499866 -1.804108 -1.490078 -1.706896 -1.471059 C -1.610771 -1.451407 -1.516479 -1.423802 -1.425475 -1.386022 C -1.33447 -1.348242 -1.248193 -1.302199 -1.165923 -1.246937 C -1.084374 -1.192631 -1.009359 -1.130386 -0.939792 -1.060834 C -0.870224 -0.991282 -0.807912 -0.914747 -0.753207 -0.833776 C -0.697783 -0.751847 -0.651053 -0.664849 -0.613738 -0.573736 C -0.576424 -0.482624 -0.548158 -0.388988 -0.52894 -0.292829 C -0.509002 -0.195713 -0.500273 -0.0989435 -0.499505 -0.000284174 Z M -0.499505 -0.000284174 " stroke="#6d412a" stroke-width="1" stroke-opacity="1" stroke-miterlimit="4"/><path stroke-linecap="butt" transform="matrix(1.550026, 2.563922, -2.913257, 1.761218, 144.233681, 22.223511)" fill="none" stroke-linejoin="miter" d="M 3.750567 0.000097383 L 14.025282 0.000200231 " stroke="#6d412a" stroke-width="1" stroke-opacity="1" stroke-miterlimit="4"/><path stroke-linecap="butt" transform="matrix(1.550026, 2.563922, -2.913257, 1.761218, 144.233681, 22.223511)" fill-opacity="1" fill="#6d412a" fill-rule="nonzero" stroke-linejoin="miter" d="M 3.499689 -0.000640294 C 3.499982 0.098739 3.491117 0.195927 3.471742 0.292887 C 3.451252 0.389253 3.423393 0.48304 3.385259 0.574041 C 3.348241 0.665636 3.301855 0.750906 3.246985 0.833002 C 3.192114 0.915099 3.130783 0.991076 3.060084 1.060728 C 2.991175 1.129992 2.914689 1.192543 2.833092 1.24701 C 2.751494 1.301477 2.664784 1.347861 2.574752 1.385774 C 2.48293 1.424074 2.389135 1.45194 2.292019 1.471333 C 2.196692 1.490338 2.098719 1.499889 1.999888 1.499599 C 1.902173 1.499902 1.803601 1.490363 1.707078 1.471187 C 1.610555 1.452012 1.517196 1.423793 1.425887 1.385938 C 1.334578 1.348083 1.248664 1.302372 1.166591 1.246636 C 1.084958 1.192476 1.008722 1.13046 0.939672 1.0602 C 0.869948 0.990922 0.807851 0.914976 0.752708 0.833343 C 0.697565 0.75171 0.652281 0.664596 0.613717 0.574353 C 0.575827 0.483129 0.547563 0.38898 0.528251 0.29289 C 0.509614 0.195819 0.500369 0.098381 0.499401 -0.0000164089 C 0.500223 -0.0988021 0.509089 -0.19599 0.528463 -0.29295 C 0.547837 -0.38991 0.576812 -0.483103 0.614946 -0.574104 C 0.65129 -0.664717 0.69835 -0.750969 0.75322 -0.833065 C 0.808091 -0.915162 0.869422 -0.991139 0.940121 -1.060791 C 1.00903 -1.130055 1.085516 -1.192606 1.167113 -1.247073 C 1.248711 -1.30154 1.335421 -1.347925 1.425453 -1.385837 C 1.5166 -1.423156 1.61107 -1.452003 1.708186 -1.471396 C 1.803513 -1.490401 1.901486 -1.499952 2.000317 -1.499662 C 2.098032 -1.499965 2.196604 -1.490426 2.293127 -1.47125 C 2.389651 -1.452075 2.483009 -1.423856 2.574318 -1.386001 C 2.665628 -1.348146 2.751541 -1.302435 2.833614 -1.246699 C 2.915247 -1.192539 2.991483 -1.130523 3.060533 -1.060263 C 3.130257 -0.990985 3.192354 -0.915039 3.247497 -0.833406 C 3.301966 -0.750791 3.347924 -0.664659 3.385814 -0.573434 C 3.424378 -0.483192 3.451526 -0.389637 3.471279 -0.291972 C 3.490591 -0.195882 3.499836 -0.098444 3.499689 -0.000640294 Z M 3.499689 -0.000640294 " stroke="#6d412a" stroke-width="1" stroke-opacity="1" stroke-miterlimit="4"/><path stroke-linecap="butt" transform="matrix(1.550026, 2.563922, -2.913257, 1.761218, 171.787157, 67.80012)" fill-opacity="1" fill="#6d412a" fill-rule="nonzero" stroke-linejoin="miter" d="M -0.499682 0.000315389 C -0.499829 0.0981191 -0.50937 0.196289 -0.528744 0.293249 C -0.547443 0.389227 -0.576418 0.48242 -0.613437 0.574015 C -0.651571 0.665016 -0.698631 0.751268 -0.753501 0.833364 C -0.808372 0.915461 -0.869703 0.991438 -0.938612 1.060702 C -1.009311 1.130354 -1.085122 1.191923 -1.167394 1.247372 C -1.248992 1.301839 -1.335702 1.348223 -1.425734 1.386136 C -1.516881 1.423455 -1.611351 1.452302 -1.707793 1.470713 C -1.803794 1.4907 -1.901767 1.500251 -2.000598 1.499961 C -2.098313 1.500264 -2.196211 1.489743 -2.292734 1.470567 C -2.389257 1.451392 -2.482615 1.423173 -2.573925 1.385318 C -2.665234 1.347463 -2.751147 1.301752 -2.833895 1.246998 C -2.915528 1.192838 -2.99109 1.12984 -3.060814 1.060562 C -3.130538 0.991284 -3.192635 0.915338 -3.247778 0.833705 C -3.302247 0.75109 -3.348205 0.664958 -3.386095 0.573733 C -3.422869 0.483102 -3.451807 0.389936 -3.47156 0.292271 C -3.490873 0.196181 -3.500117 0.098743 -3.499295 -0.0000426872 C -3.500263 -0.09844 -3.490723 -0.19661 -3.470908 -0.291994 C -3.451533 -0.388954 -3.423674 -0.482741 -3.38554 -0.573742 C -3.348522 -0.665337 -3.301462 -0.751589 -3.246591 -0.833685 C -3.192395 -0.9148 -3.131064 -0.990777 -3.060365 -1.060429 C -2.990782 -1.130675 -2.914971 -1.192244 -2.833373 -1.246711 C -2.7511 -1.30216 -2.665065 -1.347562 -2.573243 -1.385863 C -2.483211 -1.423775 -2.389416 -1.451641 -2.2923 -1.471034 C -2.196299 -1.491021 -2.098325 -1.500572 -1.999494 -1.500282 C -1.901779 -1.500585 -1.803882 -1.490064 -1.707359 -1.470888 C -1.610836 -1.451713 -1.517477 -1.423494 -1.426168 -1.385639 C -1.334859 -1.347784 -1.248945 -1.302073 -1.166197 -1.247319 C -1.085239 -1.192177 -1.009003 -1.130161 -0.939279 -1.060883 C -0.869554 -0.991605 -0.807458 -0.915659 -0.752989 -0.833044 C -0.697846 -0.751411 -0.651887 -0.665279 -0.613998 -0.574054 C -0.576108 -0.48283 -0.547844 -0.388681 -0.528532 -0.292592 C -0.509895 -0.19552 -0.499975 -0.0990639 -0.499682 0.000315389 Z M -0.499682 0.000315389 " stroke="#6d412a" stroke-width="1" stroke-opacity="1" stroke-miterlimit="4"/></svg>